<?xml version="1.0" encoding="utf-8"?>
<!-- Generator: Adobe Illustrator 17.1.0, SVG Export Plug-In . SVG Version: 6.00 Build 0)  -->
<!DOCTYPE svg PUBLIC "-//W3C//DTD SVG 1.1//EN" "http://www.w3.org/Graphics/SVG/1.1/DTD/svg11.dtd">
<svg version="1.1" id="Layer_1" xmlns="http://www.w3.org/2000/svg" xmlns:xlink="http://www.w3.org/1999/xlink" x="0px" y="0px"
	 viewBox="0 0 100 100" enable-background="new 0 0 100 100" xml:space="preserve">
<path fill="#FFFFFF" d="M9,36.4c-0.4-0.4-0.5-0.8-0.5-1.2c0-0.4,0.2-0.8,0.5-1.2C20.9,22.7,34.6,17,50,17c15.5,0,29.1,5.6,41,17
	c0.4,0.4,0.5,0.8,0.5,1.2c0,0.5-0.2,0.9-0.5,1.2c-0.4,0.3-0.8,0.5-1.2,0.5c-0.5,0-0.9-0.1-1.2-0.5C77.3,25.8,64.5,20.5,50,20.5
	s-27.3,5.3-38.5,15.9c-0.4,0.4-0.8,0.5-1.2,0.5C9.7,37,9.3,36.8,9,36.4z M20.7,48.2c-0.3-0.3-0.5-0.7-0.5-1.2c0-0.5,0.1-0.9,0.4-1.2
	c4-3.9,8.5-6.9,13.5-9c5-2.1,10.3-3.2,15.9-3.2c5.6,0,10.9,1.1,15.9,3.2c5,2.1,9.5,5.1,13.5,9c0.3,0.4,0.4,0.8,0.4,1.2
	c0,0.4-0.2,0.8-0.5,1.2s-0.7,0.5-1.2,0.5c-0.5,0-0.9-0.2-1.2-0.5c-3.6-3.6-7.7-6.3-12.3-8.2C60,37.9,55.1,37,50,37
	c-5.1,0-10,1-14.6,2.9c-4.6,1.9-8.7,4.7-12.3,8.3c-0.4,0.3-0.8,0.4-1.2,0.4C21.4,48.6,21,48.5,20.7,48.2z M33,60.5
	c-0.4-0.4-0.5-0.8-0.5-1.2c0-0.5,0.2-0.9,0.5-1.2c4.9-4.7,10.6-7,17-7s12.1,2.3,17,7c0.4,0.4,0.5,0.8,0.5,1.2c0,0.5-0.2,0.9-0.5,1.2
	c-0.4,0.4-0.8,0.5-1.2,0.5c-0.4,0-0.8-0.2-1.2-0.5c-4.3-4-9.1-6.1-14.6-6.1c-5.5,0-10.3,2-14.6,6.1c-0.3,0.4-0.7,0.5-1.2,0.5
	C33.8,61,33.4,60.8,33,60.5z M47,67.4c-1,0.4-1.9,1-2.7,1.7c-1.6,1.7-2.4,3.6-2.4,5.7c0,2.2,0.8,4.1,2.4,5.7
	c0.8,0.8,1.7,1.4,2.7,1.8c1,0.4,2,0.6,3.1,0.6c1,0,2-0.2,3-0.6c1-0.4,1.9-1,2.6-1.8c1.6-1.7,2.4-3.6,2.4-5.7c0-2.2-0.8-4.1-2.4-5.7
	c-0.8-0.8-1.6-1.3-2.6-1.7c-1-0.4-2-0.6-3.1-0.6C49,66.8,48,67,47,67.4z M50,70.3c1.3,0,2.4,0.4,3.3,1.3c0.9,0.9,1.3,2,1.3,3.2
	c0,1.3-0.4,2.4-1.3,3.3c-0.9,0.9-2,1.3-3.2,1.3c-1.3,0-2.4-0.4-3.3-1.3c-0.9-0.9-1.3-1.9-1.3-3.2c0-1.3,0.4-2.4,1.3-3.3
	C47.7,70.7,48.8,70.3,50,70.3z"/>
</svg>
