<?xml version="1.0" encoding="utf-8"?>
<!-- Generator: Adobe Illustrator 17.1.0, SVG Export Plug-In . SVG Version: 6.00 Build 0)  -->
<!DOCTYPE svg PUBLIC "-//W3C//DTD SVG 1.1//EN" "http://www.w3.org/Graphics/SVG/1.1/DTD/svg11.dtd">
<svg version="1.1" id="Layer_1" xmlns="http://www.w3.org/2000/svg" xmlns:xlink="http://www.w3.org/1999/xlink" x="0px" y="0px"
	 viewBox="0 0 100 100" enable-background="new 0 0 100 100" xml:space="preserve">
<path fill="#FFFFFF" d="M90.3,47.3c1,1.8,1.4,3.7,1.2,5.9L90,72.1c-0.2,2.1-1,4.1-2.4,6V86c-0.1,1.3-0.5,2.4-1.4,3.3
	c-0.9,0.9-1.9,1.4-3.2,1.4h-7.8c-1.4-0.1-2.5-0.5-3.3-1.4c-0.9-0.9-1.3-2-1.4-3.3v-6.2H29.6V86c0,1.3-0.4,2.4-1.3,3.3
	c-0.9,0.9-2,1.4-3.4,1.4h-7.7c-1.4-0.1-2.5-0.5-3.3-1.4c-0.9-0.9-1.3-2-1.4-3.3v-7.9c-0.8-0.9-1.3-1.8-1.7-2.8c-0.4-1-0.6-2-0.7-3.1
	L8.5,53.2c-0.2-2.6,0.4-4.8,1.7-6.7c1.3-1.9,3.1-3.2,5.5-4c0.1-0.7,0.3-1.3,0.4-1.9l5.4-12.5c1.4-2.9,3.4-5,6.1-6.2
	c2.7-1.2,5.5-1.8,8.3-1.8h29.6c2.8-0.1,5.6,0.5,8.3,1.8c2.8,1.2,4.8,3.4,6.1,6.3l5.4,13c0.3,0.6,0.4,1.2,0.4,2
	C87.9,44.2,89.3,45.6,90.3,47.3z M87.3,48.5c-0.8-1.3-2-2.2-3.5-2.8c-0.3-0.1-0.5-0.3-0.8-0.7c-0.2-0.3-0.3-0.7-0.2-1v-1
	c-1.5,1-3.1,1.6-4.7,1.9c-1.7,0.3-2.7,0.4-3.1,0.3H26.5c-0.2,0.1-1.2-0.1-2.8-0.4c-1.6-0.3-3.2-1.2-4.8-2.5c-0.1,0.4-0.1,0.8,0,1.2
	c0,0.4-0.1,0.8-0.3,1.2c-0.2,0.3-0.6,0.5-1,0.7c-1.9,0.3-3.4,1.1-4.5,2.5c-1.1,1.4-1.6,3.1-1.5,5l1.6,18.9c0.1,1.7,0.8,3.3,2,4.7
	c0.4,0.4,0.5,0.9,0.4,1.3V86c0,0.5,0.1,0.9,0.4,1.2c0.3,0.3,0.7,0.4,1.2,0.4H25c0.4,0,0.8-0.2,1.1-0.4c0.3-0.3,0.4-0.7,0.4-1.2v-7.8
	c0-0.5,0.1-0.8,0.4-1.1c0.3-0.3,0.7-0.4,1.2-0.4h43.8c0.5,0,0.9,0.1,1.2,0.4c0.3,0.3,0.4,0.6,0.4,1.1V86c0,0.5,0.1,0.9,0.4,1.2
	c0.3,0.3,0.7,0.4,1.2,0.4h7.8c0.4,0,0.8-0.2,1.1-0.4c0.3-0.3,0.4-0.7,0.4-1.2v-8.1c-0.1-0.5,0-0.9,0.4-1.3c1.2-1.4,1.9-3,2-4.7
	L88.4,53C88.5,51.3,88.1,49.8,87.3,48.5z M27.6,53.7c1.3,1.3,2,3,2,5c0,2-0.7,3.6-2,4.9c-1.3,1.3-3,2-5,2c-2,0-3.7-0.7-5-2
	c-1.3-1.3-2-3-2-4.9c0-2,0.7-3.6,2-5c1.3-1.3,3-2,5-2.1C24.6,51.6,26.3,52.3,27.6,53.7z M25.4,61.3c0.7-0.7,1.1-1.7,1.1-2.8
	s-0.4-2-1.1-2.8c-0.7-0.7-1.7-1.1-2.8-1.1c-1.1,0-2,0.4-2.8,1.1c-0.7,0.7-1.1,1.7-1.1,2.8s0.4,2,1.1,2.8c0.7,0.7,1.6,1.1,2.7,1.2
	C23.7,62.4,24.6,62,25.4,61.3z M20.3,39c0.9,1.5,2.1,2.4,3.6,2.7c1.5,0.3,2.4,0.5,2.5,0.4h48.6c0.9,0,2.1-0.2,3.5-0.5
	c1.4-0.3,2.4-0.9,2.9-1.7v-0.1l-4.3-10.3c-1-2.3-2.6-3.8-4.9-4.8c-2.2-0.9-4.5-1.4-6.7-1.4H36c-2.3,0-4.5,0.5-6.7,1.4
	c-2.2,0.9-3.8,2.5-4.9,4.8L20.3,39z M65.1,55.1c0.9,1.3,1.1,2.8,0.6,4.5L64,64.8c-0.6,1.6-1.6,2.9-3,3.9c-1.4,1-3,1.5-4.7,1.6H43.8
	c-1.7-0.1-3.3-0.6-4.7-1.6c-1.4-1-2.4-2.3-3-3.9l-1.7-5.2c-0.5-1.7-0.3-3.2,0.6-4.5c0.9-1.3,2.3-2,4.1-2h21.9
	C62.8,53.2,64.2,53.8,65.1,55.1z M62.6,56.9c-0.3-0.4-0.9-0.7-1.6-0.7H39c-0.8,0-1.3,0.2-1.6,0.7c-0.3,0.4-0.4,1-0.2,1.7l1.8,5.2
	c0.4,0.9,1,1.7,1.9,2.3c0.9,0.7,1.8,1,2.8,1.1h12.5c1-0.1,2-0.4,2.8-1.1c0.9-0.7,1.5-1.4,1.9-2.3l1.8-5.2C63,58,62.9,57.4,62.6,56.9
	z M37.5,17.6c-0.1-0.4-0.1-0.8,0.1-1.2l2.4-4.9c0.4-0.7,0.9-1.2,1.6-1.6s1.4-0.6,2.2-0.6h12.5c0.8,0,1.5,0.2,2.2,0.6
	c0.7,0.4,1.2,1,1.6,1.6l2.4,4.9c0.2,0.4,0.2,0.8,0.1,1.2c-0.1,0.4-0.4,0.7-0.8,0.9c-0.2,0.1-0.4,0.2-0.7,0.2c-0.5-0.1-1-0.4-1.4-0.9
	l-2.4-4.9c-0.1-0.1-0.2-0.2-0.4-0.4c-0.2-0.1-0.4-0.2-0.5-0.2H43.8c-0.1,0-0.3,0.1-0.5,0.2c-0.2,0.1-0.3,0.2-0.4,0.4l-2.4,4.9
	c-0.2,0.4-0.5,0.6-0.9,0.8c-0.4,0.1-0.8,0.1-1.2,0C37.9,18.3,37.7,18,37.5,17.6z M82.4,53.7c1.3,1.3,2,3,2,5c0,2-0.7,3.6-2,4.9
	c-1.3,1.3-3,2-5,2c-2,0-3.7-0.7-5-2c-1.3-1.3-2-3-2-4.9c0-2,0.7-3.6,2-5c1.3-1.3,3-2,5-2.1C79.4,51.6,81.1,52.3,82.4,53.7z
	 M80.2,61.3c0.7-0.7,1.1-1.7,1.1-2.8s-0.4-2-1.1-2.8c-0.7-0.7-1.7-1.1-2.8-1.1c-1.1,0-2,0.4-2.8,1.1c-0.7,0.7-1.1,1.7-1.1,2.8
	s0.4,2,1.1,2.8c0.7,0.7,1.6,1.1,2.7,1.2C78.5,62.4,79.5,62,80.2,61.3z"/>
</svg>
