<?xml version="1.0" encoding="utf-8"?>
<!-- Generator: Adobe Illustrator 17.1.0, SVG Export Plug-In . SVG Version: 6.00 Build 0)  -->
<!DOCTYPE svg PUBLIC "-//W3C//DTD SVG 1.1//EN" "http://www.w3.org/Graphics/SVG/1.1/DTD/svg11.dtd">
<svg version="1.1" id="Layer_1" xmlns="http://www.w3.org/2000/svg" xmlns:xlink="http://www.w3.org/1999/xlink" x="0px" y="0px"
	 viewBox="0 0 100 100" enable-background="new 0 0 100 100" xml:space="preserve">
<path fill="#FFFFFF" d="M73.3,28.5c1.8,2.4,2.8,5.1,2.8,8.1v32.1c-0.1,3-1,5.7-2.8,8.1c-1.8,2.4-4.1,4-6.9,4.8
	c-3.3,0.7-6.2,1.3-8.8,1.7c-2.6,0.4-5.1,0.6-7.6,0.6c-2.4,0-5-0.2-7.6-0.6c-2.6-0.4-5.6-1-8.8-1.7c-2.8-0.8-5.1-2.4-7-4.8
	c-1.9-2.4-2.8-5.1-2.9-8.1V36.6c0.1-3,1-5.6,2.9-8c1.9-2.4,4.2-3.9,6.9-4.7l1-0.2c1.5-0.4,3-0.7,4.5-0.9s3.1-0.4,4.7-0.4h12.3
	c1.8,0,3.5,0.1,5.3,0.4s3.4,0.6,5,0.9C69.2,24.5,71.5,26.1,73.3,28.5z M73.1,46.1c-1.2,1.5-2.8,3.2-4.7,5l-4.5,4.5
	c-0.6,0.6-1.3,1.1-2.2,1.5c-0.9,0.4-1.7,0.6-2.4,0.6H40.9c-0.8,0-1.6-0.2-2.4-0.6c-0.9-0.4-1.6-0.9-2.2-1.5
	c-1.6-1.7-3.1-3.2-4.5-4.5c-2-1.8-3.6-3.6-4.9-5.3v22.9c0.1,2.2,0.8,4.2,2.2,6.1c1.4,1.9,3.1,3.1,5.2,3.7c3.2,0.7,6.1,1.3,8.6,1.6
	c2.5,0.4,4.9,0.6,7.2,0.6c2.3,0,4.6-0.2,7.2-0.6c2.5-0.4,5.4-0.9,8.5-1.6c2.1-0.6,3.8-1.8,5.2-3.6c1.4-1.8,2.1-3.9,2.1-6.1V46.1z
	 M27.6,37.2c-0.2,0.3-0.4,0.5-0.4,0.7c0.1,2.3,0.8,4.2,2,5.8c1.2,1.6,2.8,3.4,4.9,5.3c1.4,1.3,2.9,2.8,4.6,4.6
	c0.2,0.2,0.6,0.5,1.1,0.7c0.5,0.2,0.9,0.3,1.2,0.3h18.3c0.4,0,0.9-0.1,1.3-0.3c0.5-0.2,0.8-0.4,1.1-0.7c1.7-1.8,3.2-3.4,4.6-4.7
	c2.1-1.9,3.7-3.6,4.9-5.3s1.8-3.5,2-5.8c-0.1-0.2-0.3-0.4-0.5-0.7c-0.2-0.3-0.5-0.4-0.7-0.5c-9-1.4-16.3-2.1-21.7-2.1
	c-5.5,0-12.7,0.7-21.8,2.1C28,36.8,27.8,36.9,27.6,37.2z M30.1,29.4c-1.2,1.2-2.1,2.7-2.7,4.4l0.4-0.1c9.3-1.5,16.7-2.2,22.3-2.2
	c5.6,0,13,0.7,22.2,2.2c0.2,0,0.3,0,0.4,0.1c-0.5-1.7-1.4-3.2-2.7-4.5c-1.2-1.3-2.7-2.1-4.2-2.5c-1.6-0.4-3.1-0.7-4.7-1
	c-1.6-0.3-3.2-0.4-4.9-0.4H43.9c-1.4,0-2.8,0.1-4.2,0.4c-1.4,0.3-2.8,0.6-4.3,0.9l-1,0.2C32.7,27.3,31.3,28.2,30.1,29.4z M34.6,85.4
	c0.4,0,0.7,0.1,1,0.4c0.3,0.3,0.4,0.7,0.4,1.1c0,0.4-0.1,0.8-0.4,1.2l-3,3c-0.4,0.3-0.7,0.4-1.1,0.4c-0.4,0-0.7-0.2-1-0.4
	c-0.3-0.3-0.4-0.6-0.4-1c0-0.4,0.1-0.8,0.4-1.1l3.1-3.1C33.9,85.5,34.3,85.4,34.6,85.4z M43.4,62.7c1.3,1.3,2,3,2,4.9
	c0,2-0.7,3.6-2,4.9c-1.3,1.3-2.9,2-4.9,2c-2,0-3.6-0.7-4.9-2c-1.3-1.3-2-2.9-2-4.9c0-2,0.7-3.6,2-4.9c1.3-1.3,2.9-2,4.9-2.1
	C40.5,60.7,42.1,61.4,43.4,62.7z M41.3,70.4c0.7-0.7,1.1-1.7,1.1-2.8c0-1.1-0.4-2-1.1-2.8c-0.7-0.7-1.7-1.1-2.8-1.1s-2,0.4-2.8,1.1
	c-0.7,0.7-1.1,1.7-1.1,2.8c0,1.1,0.4,2,1.1,2.8c0.7,0.7,1.6,1.1,2.7,1.2C39.6,71.5,40.6,71.1,41.3,70.4z M39.7,15.7
	c-0.3-0.3-0.4-0.7-0.4-1.2c0-0.5,0.2-0.9,0.6-1.2L46,8.7c0.4-0.2,0.7-0.3,1.2-0.3c0.4,0.1,0.7,0.3,1,0.6c0.2,0.4,0.3,0.7,0.3,1.1
	c-0.1,0.4-0.2,0.7-0.5,1l-4.7,3.6l3.3,3.4c0.3,0.3,0.4,0.6,0.4,1c0,0.4-0.1,0.7-0.4,1.1c-0.3,0.3-0.7,0.5-1.1,0.5
	c-0.4,0-0.8-0.1-1.1-0.4L39.7,15.7z M52.1,11.2c-0.3-0.3-0.5-0.6-0.5-1c-0.1-0.4,0-0.8,0.3-1.1c0.3-0.4,0.6-0.6,1-0.6
	c0.4-0.1,0.8,0,1.1,0.3l6.1,4.6c0.4,0.3,0.6,0.7,0.6,1.2c0,0.5-0.2,0.9-0.4,1.2l-4.6,4.6c-0.3,0.3-0.7,0.4-1.1,0.4
	c-0.4,0-0.8-0.2-1.1-0.5c-0.3-0.3-0.4-0.7-0.4-1.1c0-0.4,0.1-0.7,0.4-1l3.3-3.4L52.1,11.2z M66.4,62.7c1.3,1.3,2,3,2,4.9
	c0,2-0.7,3.6-2,4.9c-1.3,1.3-2.9,2-4.9,2s-3.6-0.7-4.9-2c-1.3-1.3-2-2.9-2-4.9c0-2,0.7-3.6,2-4.9c1.3-1.3,2.9-2,4.9-2.1
	C63.4,60.7,65.1,61.4,66.4,62.7z M64.3,70.4c0.7-0.7,1.1-1.7,1.1-2.8c0-1.1-0.4-2-1.1-2.8c-0.7-0.7-1.7-1.1-2.8-1.1
	c-1.1,0-2,0.4-2.8,1.1c-0.7,0.7-1.1,1.7-1.1,2.8c0,1.1,0.4,2,1.1,2.8c0.7,0.7,1.6,1.1,2.7,1.2C62.6,71.5,63.5,71.1,64.3,70.4z
	 M69.6,89c0.3,0.4,0.4,0.7,0.4,1.1c0,0.4-0.2,0.7-0.5,1c-0.3,0.3-0.7,0.4-1.1,0.4c-0.4,0-0.8-0.2-1.1-0.4l-3-3
	c-0.3-0.4-0.4-0.7-0.4-1.2c0-0.4,0.1-0.8,0.4-1.1c0.3-0.3,0.6-0.4,1-0.4c0.4,0,0.8,0.1,1.1,0.4L69.6,89z"/>
</svg>
