<?xml version="1.0" encoding="utf-8"?>
<!-- Generator: Adobe Illustrator 17.1.0, SVG Export Plug-In . SVG Version: 6.00 Build 0)  -->
<!DOCTYPE svg PUBLIC "-//W3C//DTD SVG 1.1//EN" "http://www.w3.org/Graphics/SVG/1.1/DTD/svg11.dtd">
<svg version="1.1" id="Layer_1" xmlns="http://www.w3.org/2000/svg" xmlns:xlink="http://www.w3.org/1999/xlink" x="0px" y="0px"
	 viewBox="0 0 100 100" enable-background="new 0 0 100 100" xml:space="preserve">
<path fill="#FFFFFF" d="M85.7,27.9c0.9,0.9,1.3,1.9,1.4,3.3v14c-0.1,1.3-0.5,2.4-1.4,3.3c-0.9,0.9-1.9,1.3-3.3,1.4h-1.6v28.1
	c0,1.5-0.4,2.9-1.2,4.1c-0.8,1.2-2,2.1-3.4,2.7v2.1c-0.1,1.3-0.5,2.4-1.4,3.2c-0.9,0.9-1.9,1.3-3.3,1.4H67c-1.3-0.1-2.4-0.5-3.3-1.4
	c-0.9-0.9-1.3-1.9-1.4-3.2v-1.5H37.6v1.5c-0.1,1.3-0.5,2.4-1.4,3.2c-0.9,0.9-1.9,1.3-3.3,1.4h-4.7C27,91.5,25.9,91,25,90.1
	c-0.9-0.9-1.3-1.9-1.4-3.2v-2c-1.4-0.5-2.6-1.4-3.4-2.6C19.4,81,19,79.6,19,77.9V49.8h-1.5c-1.3-0.1-2.4-0.5-3.2-1.4
	c-0.9-0.9-1.3-1.9-1.4-3.3v-14c0.1-1.3,0.5-2.4,1.4-3.3c0.9-0.9,1.9-1.3,3.2-1.4H19v-4.6c0.1-2.2,0.7-4.2,2-6c1.3-1.8,2.9-3,4.9-3.7
	c8.3-2.5,16.3-3.7,24-3.7s15.7,1.2,24,3.7c2,0.7,3.6,1.9,4.9,3.7c1.3,1.8,2,3.8,2,6v4.6h1.6C83.8,26.6,84.9,27.1,85.7,27.9z
	 M84,31.2c0-0.4-0.1-0.8-0.4-1.1c-0.3-0.3-0.7-0.4-1.1-0.4h-3.1c-0.5,0-0.8-0.1-1.1-0.4c-0.3-0.3-0.4-0.7-0.4-1.1v-0.3
	c0-1.2-0.5-2.5-1.6-3.7c-1.1-1.2-2.5-2-4.4-2.3c-2.6-0.4-5.4-0.7-8.5-0.9l-0.3,0.4c-0.4,0.5-0.9,0.9-1.6,1.4
	c-0.6,0.4-1.5,0.7-2.5,0.8H40.6c-1,0-1.8-0.2-2.3-0.6c-0.5-0.4-1-0.8-1.3-1.2L36.2,21c-2.9,0.2-5.6,0.5-8.1,0.9
	c-1.8,0.4-3.3,1.1-4.4,2.3c-1.1,1.2-1.6,2.4-1.6,3.7v0.3c0,0.4-0.1,0.8-0.4,1.1c-0.3,0.3-0.7,0.4-1.1,0.4h-3.1
	c-0.5,0-0.9,0.1-1.2,0.4c-0.3,0.3-0.4,0.7-0.4,1.1v14c0,0.4,0.1,0.8,0.4,1.1c0.3,0.3,0.7,0.4,1.2,0.4H19V35.9c0-0.5,0.1-0.9,0.4-1.2
	c0.3-0.3,0.7-0.4,1.1-0.4c0.4,0,0.8,0.1,1.1,0.4c0.3,0.3,0.4,0.7,0.4,1.2v12.3c0,1.2,0.5,2.4,1.6,3.6c1,1.2,2.5,1.9,4.3,2.3
	c7.3,1,14.6,1.5,21.8,1.5c7.2,0,14.5-0.5,21.8-1.5c1.9-0.4,3.4-1.1,4.5-2.3c1.1-1.2,1.7-2.4,1.7-3.6V35.9c0-0.5,0.1-0.9,0.4-1.2
	c0.3-0.3,0.6-0.4,1.1-0.4c0.5,0,0.8,0.1,1.1,0.4c0.3,0.3,0.4,0.7,0.4,1.2v10.8h1.6c0.4,0,0.8-0.1,1.1-0.4c0.3-0.3,0.4-0.7,0.4-1.1
	V31.2z M23.7,17.6c-0.9,1.2-1.4,2.5-1.6,3.8c1.5-1.3,3.4-2.1,5.5-2.5c2.7-0.4,5.6-0.7,8.8-1c0.4,0,0.7,0.1,1,0.2
	c0.7,0.5,1.3,1,1.7,1.5c0.3,0.3,0.5,0.5,0.7,0.6c0.2,0.1,0.4,0.2,0.7,0.2h18.5c0.4,0,0.7-0.1,0.9-0.3c0.2-0.2,0.5-0.5,0.9-0.9
	l1.1-1.1c0.4-0.2,0.7-0.3,1.2-0.3c3.3,0.2,6.4,0.6,9.3,1c1,0.1,2,0.4,2.9,0.8c0.9,0.4,1.8,1,2.5,1.6c-0.2-1.4-0.7-2.6-1.6-3.8
	c-0.9-1.2-1.9-2-3.2-2.4c-8-2.4-15.7-3.7-23.1-3.7c-7.4,0-15.1,1.2-23.1,3.7C25.6,15.6,24.6,16.4,23.7,17.6z M77.9,54.4
	c-1.6,1.4-3.5,2.3-5.8,2.7c-7.5,1.1-14.9,1.6-22.3,1.6c-7.4,0-14.8-0.5-22.3-1.6c-2.1-0.4-3.9-1.2-5.4-2.5v23.3
	c0,1.1,0.3,2.1,0.9,2.8c0.6,0.8,1.4,1.2,2.4,1.4c0.8,0.2,1.2,0.7,1.2,1.5v3.2c0,0.5,0.1,0.9,0.4,1.2c0.3,0.3,0.7,0.4,1.1,0.4H33
	c0.4,0,0.8-0.2,1.1-0.4c0.3-0.3,0.4-0.7,0.4-1.2v-3.1c0-0.4,0.1-0.8,0.4-1.1c0.3-0.3,0.7-0.4,1.1-0.4h27.9c0.5,0,0.9,0.1,1.2,0.4
	c0.3,0.3,0.4,0.7,0.4,1.1v3.1c0,0.5,0.1,0.9,0.4,1.2c0.3,0.3,0.6,0.4,1.1,0.4h4.6c0.5,0,0.8-0.2,1.1-0.4s0.4-0.7,0.4-1.2v-3.3
	c0-0.4,0.1-0.7,0.4-0.9c0.2-0.3,0.5-0.4,0.9-0.5c1.1-0.3,1.9-0.8,2.5-1.6c0.6-0.7,0.9-1.6,0.9-2.7V54.4z M40.7,72.7
	c-0.1,1-0.5,1.8-1.3,2.4c-0.8,0.6-2,0.9-3.4,0.9h-7.1c-1.7-0.1-2.8-0.7-3.2-1.6c-0.4-1-0.5-1.8-0.5-2.4v-3.4c-0.1-0.7-0.1-1.4,0-2.2
	c0.1-0.7,0.4-1.4,0.9-1.9c0.9-0.9,2.1-1,3.6-0.4l6.9,2.4C39.3,67.5,40.7,69.5,40.7,72.7z M37.2,72.8c0.2-0.1,0.4-0.2,0.4-0.3
	c0-1.1-0.2-1.8-0.6-2.2c-0.4-0.4-0.8-0.7-1.3-0.9l-7-2.4C28.5,67,28.4,67,28.4,67c-0.1,0.2-0.1,0.4-0.1,0.8V72
	c0.1,0.5,0.1,0.8,0.1,0.9h0.1l0.4,0.1H36C36.6,73,36.9,73,37.2,72.8z M71.9,63.8c0.7,0.1,1.2,0.4,1.7,0.8c0.5,0.6,0.9,1.3,1,2.1
	c0.1,0.8,0.2,1.6,0.2,2.3v3c0,1.2-0.4,2.2-1.1,2.9c-0.7,0.7-1.8,1.1-3.2,1.1h-7.1c-1.4,0-2.5-0.3-3.3-0.9c-0.9-0.6-1.3-1.4-1.3-2.4
	c0-3.1,1.3-5.2,3.9-6.1l7.3-2.4C70.6,63.8,71.2,63.7,71.9,63.8z M71.6,67.9c-0.1-0.5-0.1-0.8-0.2-1.1L71,67l-7.4,2.4
	c-1.3,0.4-1.9,1.5-1.9,3.1c0.1,0.1,0.2,0.1,0.5,0.3s0.6,0.2,1.1,0.2h7.1c0.5,0,0.9-0.1,1-0.3c0.1-0.2,0.2-0.4,0.2-0.7V67.9z"/>
</svg>
